FILE "Hogs of War (E) (Track 1) [SLES-01041].bin" BINARY
  TRACK 01 MODE2/2352
    INDEX 01 00:00:00
FILE "Hogs of War (E) (Track 2) [SLES-01041].bin" BINARY
  TRACK 02 AUDIO
    INDEX 00 00:00:00
    INDEX 01 00:02:00
FILE "Hogs of War (E) (Track 3) [SLES-01041].bin" BINARY
  TRACK 03 AUDIO
    INDEX 00 00:00:00
    INDEX 01 00:02:00
